<svg width="32" height="32" viewBox="0 0 32 32" fill="none" xmlns="http://www.w3.org/2000/svg">
<path d="M30.3759 0.375H1.62585C0.934441 0.375 0.375847 0.933594 0.375847 1.625V30.375C0.375847 31.0664 0.934441 31.625 1.62585 31.625H30.3759C31.0673 31.625 31.6259 31.0664 31.6259 30.375V1.625C31.6259 0.933594 31.0673 0.375 30.3759 0.375ZM26.7665 9.49609H24.2704C22.3133 9.49609 21.9344 10.4258 21.9344 11.793V14.8047H26.6063L25.9969 19.5195H21.9344V31.625H17.0633V19.5234H12.9891V14.8047H17.0633V11.3281C17.0633 7.29297 19.5282 5.09375 23.1298 5.09375C24.8563 5.09375 26.3368 5.22266 26.7704 5.28125V9.49609H26.7665Z" fill="white"/>
</svg>
