<svg width="34" height="28" viewBox="0 0 34 28" fill="none" xmlns="http://www.w3.org/2000/svg">
<path d="M33.2508 3.93361C32.0555 4.44923 30.7547 4.82033 29.4149 4.96486C30.8059 4.13844 31.8477 2.83283 32.3446 1.29298C31.0392 2.0695 29.6092 2.61401 28.118 2.90236C27.4947 2.23606 26.7409 1.70525 25.9036 1.34301C25.0662 0.980778 24.1632 0.794876 23.2508 0.796891C19.5594 0.796891 16.5907 3.78908 16.5907 7.46095C16.5907 7.97658 16.6532 8.4922 16.7547 8.9883C11.2274 8.69923 6.29769 6.05861 3.02035 2.01564C2.42318 3.03562 2.11025 4.19699 2.1141 5.37892C2.1141 7.69142 3.28988 9.73048 5.08285 10.9297C4.02623 10.8881 2.99435 10.5977 2.07113 10.082V10.1641C2.07113 13.4024 4.3602 16.086 7.41098 16.7031C6.83816 16.8519 6.24889 16.928 5.65707 16.9297C5.22348 16.9297 4.81332 16.8867 4.39926 16.8281C5.24301 19.4688 7.70004 21.3867 10.6258 21.4492C8.33676 23.2422 5.46957 24.2969 2.35629 24.2969C1.7977 24.2969 1.28207 24.2774 0.746914 24.2149C3.70004 26.1094 7.20394 27.2031 10.9774 27.2031C23.2274 27.2031 29.9305 17.0547 29.9305 8.24611C29.9305 7.95705 29.9305 7.66798 29.911 7.37892C31.2078 6.4297 32.3446 5.25392 33.2508 3.93361Z" fill="white"/>
</svg>
