<svg width="32" height="32" viewBox="0 0 32 32" fill="none" xmlns="http://www.w3.org/2000/svg">
<path d="M30.377 0.375H1.627C0.935593 0.375 0.376999 0.933594 0.376999 1.625V30.375C0.376999 31.0664 0.935593 31.625 1.627 31.625H30.377C31.0684 31.625 31.627 31.0664 31.627 30.375V1.625C31.627 0.933594 31.0684 0.375 30.377 0.375ZM9.64653 27.0039H5.00981V12.0898H9.64653V27.0039ZM7.33012 10.0508C6.79859 10.0508 6.27899 9.89316 5.83703 9.59786C5.39507 9.30255 5.05061 8.88282 4.8472 8.39174C4.64379 7.90067 4.59057 7.3603 4.69426 6.83898C4.79796 6.31765 5.05392 5.83879 5.42977 5.46293C5.80563 5.08708 6.28449 4.83112 6.80582 4.72742C7.32714 4.62372 7.86751 4.67694 8.35858 4.88035C8.84966 5.08377 9.26939 5.42823 9.5647 5.87019C9.86 6.31214 10.0176 6.83174 10.0176 7.36328C10.0137 8.84766 8.81059 10.0508 7.33012 10.0508ZM27.0059 27.0039H22.3731V19.75C22.3731 18.0195 22.3418 15.7969 19.9629 15.7969C17.5528 15.7969 17.1817 17.6797 17.1817 19.625V27.0039H12.5528V12.0898H16.9981V14.1289H17.0606C17.6778 12.957 19.1895 11.7188 21.4473 11.7188C26.1426 11.7188 27.0059 14.8086 27.0059 18.8242V27.0039Z" fill="white"/>
</svg>
