<svg width="24" height="25" viewBox="0 0 24 25" fill="none" xmlns="http://www.w3.org/2000/svg">
<path d="M16.75 3.7303V2.15422C16.75 1.73999 16.41 1.39648 16 1.39648C15.59 1.39648 15.25 1.73999 15.25 2.15422V3.66968H8.74999V2.15422C8.74999 1.73999 8.40999 1.39648 7.99999 1.39648C7.58999 1.39648 7.24999 1.73999 7.24999 2.15422V3.7303C4.54999 3.98288 3.23999 5.60947 3.03999 8.02411C3.01999 8.3171 3.25999 8.55958 3.53999 8.55958H20.46C20.75 8.55958 20.99 8.307 20.96 8.02411C20.76 5.60947 19.45 3.98288 16.75 3.7303Z" fill="black"/>
<path d="M19 15.2886C16.79 15.2886 15 17.097 15 19.3298C15 20.0875 15.21 20.8049 15.58 21.411C16.27 22.583 17.54 23.371 19 23.371C20.46 23.371 21.73 22.583 22.42 21.411C22.79 20.8049 23 20.0875 23 19.3298C23 17.097 21.21 15.2886 19 15.2886ZM21.07 18.8954L18.94 20.8857C18.8 21.017 18.61 21.0877 18.43 21.0877C18.24 21.0877 18.05 21.017 17.9 20.8655L16.91 19.8653C16.62 19.5723 16.62 19.0873 16.91 18.7943C17.2 18.5014 17.68 18.5014 17.97 18.7943L18.45 19.2793L20.05 17.784C20.35 17.5012 20.83 17.5214 21.11 17.8245C21.39 18.1275 21.37 18.6024 21.07 18.8954Z" fill="black"/>
<path d="M20 10.0752H4C3.45 10.0752 3 10.5298 3 11.0855V17.309C3 20.3399 4.5 22.3606 8 22.3606H12.93C13.62 22.3606 14.1 21.6836 13.88 21.0269C13.68 20.441 13.51 19.7944 13.51 19.3296C13.51 16.2684 15.98 13.7729 19.01 13.7729C19.3 13.7729 19.59 13.7931 19.87 13.8436C20.47 13.9346 21.01 13.4597 21.01 12.8535V11.0956C21 10.5298 20.55 10.0752 20 10.0752ZM9.21 18.5315C9.02 18.7133 8.76 18.8245 8.5 18.8245C8.24 18.8245 7.98 18.7133 7.79 18.5315C7.61 18.3395 7.5 18.0768 7.5 17.8142C7.5 17.5515 7.61 17.2888 7.79 17.0968C7.89 17.0059 7.99 16.9352 8.12 16.8847C8.49 16.723 8.93 16.814 9.21 17.0968C9.39 17.2888 9.5 17.5515 9.5 17.8142C9.5 18.0768 9.39 18.3395 9.21 18.5315ZM9.21 14.9954C9.16 15.0358 9.11 15.0762 9.06 15.1166C9 15.1571 8.94 15.1874 8.88 15.2076C8.82 15.2379 8.76 15.2581 8.7 15.2682C8.63 15.2783 8.56 15.2884 8.5 15.2884C8.24 15.2884 7.98 15.1773 7.79 14.9954C7.61 14.8034 7.5 14.5408 7.5 14.2781C7.5 14.0154 7.61 13.7527 7.79 13.5608C8.02 13.3284 8.37 13.2173 8.7 13.288C8.76 13.2981 8.82 13.3183 8.88 13.3486C8.94 13.3688 9 13.3991 9.06 13.4395C9.11 13.4799 9.16 13.5203 9.21 13.5608C9.39 13.7527 9.5 14.0154 9.5 14.2781C9.5 14.5408 9.39 14.8034 9.21 14.9954ZM12.71 14.9954C12.52 15.1773 12.26 15.2884 12 15.2884C11.74 15.2884 11.48 15.1773 11.29 14.9954C11.11 14.8034 11 14.5408 11 14.2781C11 14.0154 11.11 13.7527 11.29 13.5608C11.67 13.1869 12.34 13.1869 12.71 13.5608C12.89 13.7527 13 14.0154 13 14.2781C13 14.5408 12.89 14.8034 12.71 14.9954Z" fill="black"/>
</svg>
