<svg width="34" height="34" viewBox="0 0 34 34" fill="none" xmlns="http://www.w3.org/2000/svg">
<path d="M23.9834 0.333374H10.0167C3.95004 0.333374 0.333374 3.95004 0.333374 10.0167V23.9667C0.333374 30.05 3.95004 33.6667 10.0167 33.6667H23.9667C30.0334 33.6667 33.65 30.05 33.65 23.9834V10.0167C33.6667 3.95004 30.05 0.333374 23.9834 0.333374ZM21.65 17.8834L15.7667 23.7667C15.5167 24.0167 15.2 24.1334 14.8834 24.1334C14.5667 24.1334 14.25 24.0167 14 23.7667C13.5167 23.2834 13.5167 22.4834 14 22L19 17L14 12C13.5167 11.5167 13.5167 10.7167 14 10.2334C14.4834 9.75004 15.2834 9.75004 15.7667 10.2334L21.65 16.1167C22.15 16.6 22.15 17.4 21.65 17.8834Z" fill="white"/>
</svg>
