<svg width="24" height="25" viewBox="0 0 24 25" fill="none" xmlns="http://www.w3.org/2000/svg">
<path d="M20.98 10.9443C20.76 7.00405 17.87 3.72055 14.01 3.05374C13.95 2.27581 13.31 1.64941 12.52 1.64941H11.52C10.73 1.64941 10.1 2.2657 10.03 3.04364C6.15002 3.69024 3.24002 6.98385 3.02002 10.9443C2.31002 11.0655 1.77002 11.6818 1.77002 12.4294V13.4397C1.77002 14.2783 2.44002 14.9552 3.27002 14.9552H4.27002C5.10002 14.9552 5.77002 14.2783 5.77002 13.4397V12.4294C5.77002 11.6818 5.23002 11.0655 4.52002 10.9443C4.73002 7.79209 7.02002 5.17539 10.08 4.56921C10.25 5.21581 10.83 5.69065 11.52 5.69065H12.52C13.21 5.69065 13.78 5.21581 13.96 4.57931C17 5.1956 19.27 7.8123 19.48 10.9443C18.77 11.0655 18.23 11.6818 18.23 12.4294V13.4397C18.23 14.2783 18.9 14.9552 19.73 14.9552H20.73C21.56 14.9552 22.23 14.2783 22.23 13.4397V12.4294C22.23 11.6818 21.69 11.0554 20.98 10.9443Z" fill="black"/>
<path d="M15.77 16.8544L14.13 18.3194H9.88002L8.24002 16.8544C7.29002 16.0664 7.29002 15.4602 8.01002 14.5307L10.9 10.833C11.1 10.5804 11.33 10.4086 11.59 10.3177C11.86 10.2268 12.15 10.2268 12.43 10.3177C12.68 10.4086 12.91 10.5804 13.12 10.833L16 14.5206C16.73 15.4501 16.69 16.026 15.77 16.8544Z" fill="black"/>
<path d="M13.32 22.3607H10.73C9.81005 22.3607 9.12005 21.603 9.30005 20.7947L9.61005 19.3904C9.67005 19.1075 9.92005 18.9155 10.2 18.9155H13.85C14.13 18.9155 14.37 19.1075 14.44 19.3904L14.75 20.7947C14.94 21.6535 14.3 22.3607 13.32 22.3607Z" fill="black"/>
</svg>
