<svg width="24" height="25" viewBox="0 0 24 25" fill="none" xmlns="http://www.w3.org/2000/svg">
<path d="M17.53 7.98378C17.46 7.97368 17.39 7.97368 17.32 7.98378C15.77 7.93327 14.54 6.65017 14.54 5.07409C14.54 3.4677 15.83 2.1543 17.43 2.1543C19.02 2.1543 20.32 3.4576 20.32 5.07409C20.31 6.65017 19.08 7.93327 17.53 7.98378Z" fill="black"/>
<path d="M20.79 14.9851C19.67 15.7428 18.1 16.0257 16.65 15.8338C17.03 15.0053 17.23 14.0859 17.24 13.116C17.24 12.1057 17.02 11.1459 16.6 10.3074C18.08 10.1053 19.65 10.3882 20.78 11.1459C22.36 12.1967 22.36 13.9243 20.79 14.9851Z" fill="black"/>
<path d="M6.43997 7.98378C6.50997 7.97368 6.57997 7.97368 6.64997 7.98378C8.19997 7.93327 9.42997 6.65017 9.42997 5.07409C9.42997 3.4576 8.13997 2.1543 6.53997 2.1543C4.94997 2.1543 3.65997 3.4576 3.65997 5.07409C3.65997 6.65017 4.88997 7.93327 6.43997 7.98378Z" fill="black"/>
<path d="M6.55 13.1162C6.55 14.0962 6.75999 15.0257 7.14 15.8643C5.73 16.0158 4.26 15.7127 3.18 14.9954C1.6 13.9346 1.6 12.2069 3.18 11.1461C4.25 10.4187 5.75999 10.1257 7.18 10.2874C6.77 11.136 6.55 12.0958 6.55 13.1162Z" fill="black"/>
<path d="M12.12 16.1674C12.04 16.1573 11.95 16.1573 11.86 16.1674C10.02 16.1068 8.54999 14.5812 8.54999 12.702C8.55999 10.7824 10.09 9.22656 12 9.22656C13.9 9.22656 15.44 10.7824 15.44 12.702C15.43 14.5812 13.97 16.1068 12.12 16.1674Z" fill="black"/>
<path d="M8.86999 18.2586C7.35999 19.279 7.35999 20.9561 8.86999 21.9664C10.59 23.1283 13.41 23.1283 15.13 21.9664C16.64 20.946 16.64 19.2689 15.13 18.2586C13.42 17.0967 10.6 17.0967 8.86999 18.2586Z" fill="black"/>
</svg>
