<svg width="28" height="34" viewBox="0 0 28 34" fill="none" xmlns="http://www.w3.org/2000/svg">
<path d="M21.0667 0.333313H6.93335C2.33335 0.333313 0.666687 1.99998 0.666687 6.68331V27.3166C0.666687 32 2.33335 33.6666 6.93335 33.6666H21.05C25.6667 33.6666 27.3334 32 27.3334 27.3166V6.68331C27.3334 1.99998 25.6667 0.333313 21.0667 0.333313ZM14 29.1666C12.4 29.1666 11.0834 27.85 11.0834 26.25C11.0834 24.65 12.4 23.3333 14 23.3333C15.6 23.3333 16.9167 24.65 16.9167 26.25C16.9167 27.85 15.6 29.1666 14 29.1666ZM17.3334 7.41665H10.6667C9.98335 7.41665 9.41669 6.84998 9.41669 6.16665C9.41669 5.48331 9.98335 4.91665 10.6667 4.91665H17.3334C18.0167 4.91665 18.5834 5.48331 18.5834 6.16665C18.5834 6.84998 18.0167 7.41665 17.3334 7.41665Z" fill="white"/>
</svg>
