<svg width="30" height="36" viewBox="0 0 30 36" fill="none" xmlns="http://www.w3.org/2000/svg">
<path d="M29.3666 12.0834C27.6166 4.38335 20.9 0.916687 15 0.916687C15 0.916687 15 0.916687 14.9833 0.916687C9.09998 0.916687 2.36664 4.36669 0.616642 12.0667C-1.33336 20.6667 3.93331 27.95 8.69998 32.5333C10.4666 34.2333 12.7333 35.0834 15 35.0834C17.2666 35.0834 19.5333 34.2333 21.2833 32.5333C26.05 27.95 31.3166 20.6834 29.3666 12.0834ZM15 20.4334C12.1 20.4334 9.74998 18.0834 9.74998 15.1834C9.74998 12.2834 12.1 9.93335 15 9.93335C17.9 9.93335 20.25 12.2834 20.25 15.1834C20.25 18.0834 17.9 20.4334 15 20.4334Z" fill="white"/>
</svg>
