<svg width="40" height="40" viewBox="0 0 40 40" fill="none" xmlns="http://www.w3.org/2000/svg">
<path d="M35 12.9165H5C4.31667 12.9165 3.75 12.3498 3.75 11.6665C3.75 10.9832 4.31667 10.4165 5 10.4165H35C35.6833 10.4165 36.25 10.9832 36.25 11.6665C36.25 12.3498 35.6833 12.9165 35 12.9165Z" fill="white"/>
<path d="M35 21.25H5C4.31667 21.25 3.75 20.6833 3.75 20C3.75 19.3167 4.31667 18.75 5 18.75H35C35.6833 18.75 36.25 19.3167 36.25 20C36.25 20.6833 35.6833 21.25 35 21.25Z" fill="white"/>
<path d="M35 29.5835H5C4.31667 29.5835 3.75 29.0168 3.75 28.3335C3.75 27.6502 4.31667 27.0835 5 27.0835H35C35.6833 27.0835 36.25 27.6502 36.25 28.3335C36.25 29.0168 35.6833 29.5835 35 29.5835Z" fill="white"/>
</svg>
